<svg xmlns="http://www.w3.org/2000/svg" width="50" height="50" fill="none" viewBox="0 0 50 50"><circle cx="25" cy="25" r="25" fill="#193cd8"/><path fill="#fff" d="M22.112 37q-1.476 0-2.268-.648-.756-.648-.792-1.296l-.036-.612V19h2.52v15.444q0 1.044.396 1.62.432.54.828.576l.432.072h1.116V37zm-2.88-22.032a1.47 1.47 0 0 1-.432-1.08q0-.648.432-1.08a1.4 1.4 0 0 1 1.08-.468q.648 0 1.08.468.468.432.468 1.08t-.468 1.08a1.47 1.47 0 0 1-1.08.432q-.648 0-1.08-.432m7.631-1.955q1.475-.004 2.27.642.758.645.795 1.294l.037.612.039 15.444-2.52.006-.039-15.444q-.002-1.043-.4-1.619-.433-.538-.829-.574l-.432-.07-1.116.002v-.288zm2.935 22.025q.434.43.435 1.079.001.647-.43 1.08-.43.47-1.079.471a1.41 1.41 0 0 1-1.08-.465 1.41 1.41 0 0 1-.471-1.079 1.4 1.4 0 0 1 .465-1.081 1.47 1.47 0 0 1 1.079-.435q.648-.001 1.08.43"/></svg>