<svg width="50" height="50" viewBox="0 0 50 50" fill="none" xmlns="http://www.w3.org/2000/svg">
<path d="M20.13 12.775C19.5 12.775 18.96 12.55 18.51 12.1C18.09 11.65 17.88 11.08 17.88 10.39C17.88 9.7 18.09 9.145 18.51 8.725C18.96 8.275 19.5 8.05 20.13 8.05C20.76 8.05 21.285 8.275 21.705 8.725C22.125 9.145 22.335 9.7 22.335 10.39C22.335 11.08 22.125 11.65 21.705 12.1C21.285 12.55 20.76 12.775 20.13 12.775ZM16.35 40C15.9 40 15.675 39.835 15.675 39.505C15.675 39.235 15.87 39.055 16.26 38.965L16.8 38.875C17.55 38.755 18.03 38.575 18.24 38.335C18.45 38.065 18.555 37.615 18.555 36.985V21.865C18.555 21.325 18.465 20.965 18.285 20.785C18.135 20.575 17.85 20.44 17.43 20.38L16.485 20.245C16.095 20.215 15.9 20.05 15.9 19.75C15.9 19.51 16.14 19.345 16.62 19.255C17.55 19.105 18.3 18.865 18.87 18.535C19.44 18.205 19.995 17.8 20.535 17.32C20.805 17.05 21.03 16.915 21.21 16.915C21.48 16.915 21.615 17.095 21.615 17.455V36.985C21.615 37.615 21.705 38.065 21.885 38.335C22.065 38.605 22.41 38.77 22.92 38.83L24.045 38.965C24.375 39.025 24.54 39.19 24.54 39.46C24.54 39.82 24.315 40 23.865 40H16.35Z" fill="white"/>
<path d="M29.87 37.225C30.5 37.225 31.04 37.45 31.49 37.9C31.91 38.35 32.12 38.92 32.12 39.61C32.12 40.3 31.91 40.855 31.49 41.275C31.04 41.725 30.5 41.95 29.87 41.95C29.24 41.95 28.715 41.725 28.295 41.275C27.875 40.855 27.665 40.3 27.665 39.61C27.665 38.92 27.875 38.35 28.295 37.9C28.715 37.45 29.24 37.225 29.87 37.225ZM33.65 10C34.1 10 34.325 10.165 34.325 10.495C34.325 10.765 34.13 10.945 33.74 11.035L33.2 11.125C32.45 11.245 31.97 11.425 31.76 11.665C31.55 11.935 31.445 12.385 31.445 13.015V28.135C31.445 28.675 31.535 29.035 31.715 29.215C31.865 29.425 32.15 29.56 32.57 29.62L33.515 29.755C33.905 29.785 34.1 29.95 34.1 30.25C34.1 30.49 33.86 30.655 33.38 30.745C32.45 30.895 31.7 31.135 31.13 31.465C30.56 31.795 30.005 32.2 29.465 32.68C29.195 32.95 28.97 33.085 28.79 33.085C28.52 33.085 28.385 32.905 28.385 32.545V13.015C28.385 12.385 28.295 11.935 28.115 11.665C27.935 11.395 27.59 11.23 27.08 11.17L25.955 11.035C25.625 10.975 25.46 10.81 25.46 10.54C25.46 10.18 25.685 10 26.135 10H33.65Z" fill="white"/>
</svg>
