<svg xmlns="http://www.w3.org/2000/svg" width="50" height="50" fill="none" viewBox="0 0 50 50"><path fill="#fff" d="M23.112 37q-1.476 0-2.268-.648-.756-.648-.792-1.296l-.036-.612V19h2.52v15.444q0 1.044.396 1.62.432.54.828.576l.432.072h1.116V37zm-2.88-22.032a1.47 1.47 0 0 1-.432-1.08q0-.648.432-1.08a1.4 1.4 0 0 1 1.08-.468q.648 0 1.08.468.468.432.468 1.08t-.468 1.08a1.47 1.47 0 0 1-1.08.432q-.648 0-1.08-.432M26.888 13q1.476 0 2.268.648.756.648.792 1.296l.036.612V31h-2.52V15.556q0-1.044-.396-1.62-.432-.54-.828-.576l-.432-.072h-1.116V13zm2.88 22.032q.432.432.432 1.08t-.432 1.08a1.4 1.4 0 0 1-1.08.468q-.648 0-1.08-.468a1.4 1.4 0 0 1-.468-1.08q0-.648.468-1.08a1.47 1.47 0 0 1 1.08-.432q.648 0 1.08.432"/></svg>