<svg xmlns="http://www.w3.org/2000/svg" width="50" height="50" fill="none" viewBox="0 0 50 50"><path fill="#fff" d="M20.13 12.775a2.2 2.2 0 0 1-1.62-.675q-.63-.675-.63-1.71t.63-1.665q.675-.675 1.62-.675t1.575.675q.63.63.63 1.665t-.63 1.71-1.575.675M16.35 40q-.675 0-.675-.495 0-.405.585-.54l.54-.09q1.125-.18 1.44-.54.315-.405.315-1.35v-15.12q0-.81-.27-1.08-.225-.315-.855-.405l-.945-.135q-.585-.045-.585-.495 0-.36.72-.495 1.395-.225 2.25-.72a10.2 10.2 0 0 0 1.665-1.215q.405-.405.675-.405.405 0 .405.54v19.53q0 .945.27 1.35t1.035.495l1.125.135q.495.09.495.495 0 .54-.675.54zm13.52-4.025q.945 0 1.62.675.63.675.63 1.71t-.63 1.665q-.675.675-1.62.675t-1.575-.675q-.63-.63-.63-1.665t.63-1.71 1.575-.675M33.65 8.75q.675 0 .675.495 0 .405-.585.54l-.54.09q-1.125.18-1.44.54-.315.405-.315 1.35v15.12q0 .81.27 1.08.225.315.855.405l.945.135q.585.045.585.495 0 .36-.72.495-1.395.225-2.25.72t-1.665 1.215q-.405.405-.675.405-.405 0-.405-.54v-19.53q0-.945-.27-1.35T27.08 9.92l-1.125-.135q-.495-.09-.495-.495 0-.54.675-.54z"/></svg>